<?xml version="1.0" standalone="no"?>
<svg xmlns:xlink="http://www.w3.org/1999/xlink" id="wave" style="transform:rotate(0deg); transition: 0.3s" viewBox="0 0 1440 110" version="1.1" xmlns="http://www.w3.org/2000/svg"><defs><linearGradient id="sw-gradient-0" x1="0" x2="0" y1="1" y2="0"><stop stop-color="rgba(149.766, 19.681, 239.383, 1)" offset="0%"/><stop stop-color="rgba(11, 180.612, 255, 1)" offset="100%"/></linearGradient></defs><path style="transform:translate(0, 0px); opacity:1" fill="url(#sw-gradient-0)" d="M0,77L10,67.8C20,59,40,40,60,29.3C80,18,100,15,120,12.8C140,11,160,11,180,25.7C200,40,220,70,240,71.5C260,73,280,48,300,31.2C320,15,340,7,360,14.7C380,22,400,44,420,47.7C440,51,460,37,480,31.2C500,26,520,29,540,31.2C560,33,580,33,600,38.5C620,44,640,55,660,66C680,77,700,88,720,77C740,66,760,33,780,20.2C800,7,820,15,840,22C860,29,880,37,900,33C920,29,940,15,960,9.2C980,4,1000,7,1020,14.7C1040,22,1060,33,1080,40.3C1100,48,1120,51,1140,55C1160,59,1180,62,1200,53.2C1220,44,1240,22,1260,18.3C1280,15,1300,29,1320,38.5C1340,48,1360,51,1380,49.5C1400,48,1420,40,1430,36.7L1440,33L1440,110L1430,110C1420,110,1400,110,1380,110C1360,110,1340,110,1320,110C1300,110,1280,110,1260,110C1240,110,1220,110,1200,110C1180,110,1160,110,1140,110C1120,110,1100,110,1080,110C1060,110,1040,110,1020,110C1000,110,980,110,960,110C940,110,920,110,900,110C880,110,860,110,840,110C820,110,800,110,780,110C760,110,740,110,720,110C700,110,680,110,660,110C640,110,620,110,600,110C580,110,560,110,540,110C520,110,500,110,480,110C460,110,440,110,420,110C400,110,380,110,360,110C340,110,320,110,300,110C280,110,260,110,240,110C220,110,200,110,180,110C160,110,140,110,120,110C100,110,80,110,60,110C40,110,20,110,10,110L0,110Z"/><defs><linearGradient id="sw-gradient-1" x1="0" x2="0" y1="1" y2="0"><stop stop-color="rgba(184.74, 85.754, 1.63, 1)" offset="0%"/><stop stop-color="rgba(48.022, 11, 255, 1)" offset="100%"/></linearGradient></defs><path style="transform:translate(0, 50px); opacity:0.9" fill="url(#sw-gradient-1)" d="M0,0L10,1.8C20,4,40,7,60,7.3C80,7,100,4,120,9.2C140,15,160,29,180,40.3C200,51,220,59,240,53.2C260,48,280,29,300,25.7C320,22,340,33,360,31.2C380,29,400,15,420,11C440,7,460,15,480,14.7C500,15,520,7,540,20.2C560,33,580,66,600,80.7C620,95,640,92,660,77C680,62,700,37,720,29.3C740,22,760,33,780,44C800,55,820,66,840,67.8C860,70,880,62,900,53.2C920,44,940,33,960,27.5C980,22,1000,22,1020,20.2C1040,18,1060,15,1080,11C1100,7,1120,4,1140,16.5C1160,29,1180,59,1200,73.3C1220,88,1240,88,1260,78.8C1280,70,1300,51,1320,44C1340,37,1360,40,1380,42.2C1400,44,1420,44,1430,44L1440,44L1440,110L1430,110C1420,110,1400,110,1380,110C1360,110,1340,110,1320,110C1300,110,1280,110,1260,110C1240,110,1220,110,1200,110C1180,110,1160,110,1140,110C1120,110,1100,110,1080,110C1060,110,1040,110,1020,110C1000,110,980,110,960,110C940,110,920,110,900,110C880,110,860,110,840,110C820,110,800,110,780,110C760,110,740,110,720,110C700,110,680,110,660,110C640,110,620,110,600,110C580,110,560,110,540,110C520,110,500,110,480,110C460,110,440,110,420,110C400,110,380,110,360,110C340,110,320,110,300,110C280,110,260,110,240,110C220,110,200,110,180,110C160,110,140,110,120,110C100,110,80,110,60,110C40,110,20,110,10,110L0,110Z"/></svg>