<svg xmlns="http://www.w3.org/2000/svg" xmlns:xlink="http://www.w3.org/1999/xlink" version="1.1" width="1000" height="1000" viewBox="0 0 1000 1000" xml:space="preserve">
<desc>Created with Fabric.js 3.5.0</desc>
<defs>
</defs>
<rect x="0" y="0" width="100%" height="100%" fill="#ffffff"/>
<g transform="matrix(0.6944 0 0 -0.6944 500 500)" id="609750">
<g style="" vector-effect="non-scaling-stroke">
		<g transform="matrix(1 0 0 1 0 6.2222)" id="wave">
<linearGradient id="SVGID_5" gradientUnits="objectBoundingBox" gradientTransform="matrix(1 0 0 1 720 111.2222)" x1="0" y1="1" x2="0" y2="0">
<stop offset="0%" style="stop-color:rgb(149,19,239);stop-opacity: 1"/>
<stop offset="100%" style="stop-color:rgb(11,180,255);stop-opacity: 1"/>
</linearGradient>
<path style="stroke: none; stroke-width: 1; stroke-dasharray: none; stroke-linecap: butt; stroke-dashoffset: 0; stroke-linejoin: miter; stroke-miterlimit: 4; is-custom-font: none; font-file-url: none; fill: url(#SVGID_5); fill-rule: nonzero; opacity: 1;" transform=" translate(-720, -111.2222)" d="M 0 147 L 10 129.5 C 20 112 40 77 60 56 C 80 35 100 28 120 24.5 C 140 21 160 21 180 49 C 200 77 220 133 240 136.5 C 260 140 280 91 300 59.5 C 320 28 340 14 360 28 C 380 42 400 84 420 91 C 440 98 460 70 480 59.5 C 500 49 520 56 540 59.5 C 560 63 580 63 600 73.5 C 620 84 640 105 660 126 C 680 147 700 168 720 147 C 740 126 760 63 780 38.5 C 800 14 820 28 840 42 C 860 56 880 70 900 63 C 920 56 940 28 960 17.5 C 980 7 1000 14 1020 28 C 1040 42 1060 63 1080 77 C 1100 91 1120 98 1140 105 C 1160 112 1180 119 1200 101.5 C 1220 84 1240 42 1260 35 C 1280 28 1300 56 1320 73.5 C 1340 91 1360 98 1380 94.5 C 1400 91 1420 77 1430 70 L 1440 63 L 1440 210 L 1430 210 C 1420 210 1400 210 1380 210 C 1360 210 1340 210 1320 210 C 1300 210 1280 210 1260 210 C 1240 210 1220 210 1200 210 C 1180 210 1160 210 1140 210 C 1120 210 1100 210 1080 210 C 1060 210 1040 210 1020 210 C 1000 210 980 210 960 210 C 940 210 920 210 900 210 C 880 210 860 210 840 210 C 820 210 800 210 780 210 C 760 210 740 210 720 210 C 700 210 680 210 660 210 C 640 210 620 210 600 210 C 580 210 560 210 540 210 C 520 210 500 210 480 210 C 460 210 440 210 420 210 C 400 210 380 210 360 210 C 340 210 320 210 300 210 C 280 210 260 210 240 210 C 220 210 200 210 180 210 C 160 210 140 210 120 210 C 100 210 80 210 60 210 C 40 210 20 210 10 210 L 0 210 Z" stroke-linecap="round"/>
</g>
		<g transform="matrix(1 0 0 1 0 0)" id="wave">
<linearGradient id="SVGID_6" gradientUnits="objectBoundingBox" gradientTransform="matrix(1 0 0 1 720 105)" x1="0" y1="1" x2="0" y2="0">
<stop offset="0%" style="stop-color:rgb(184,85,1);stop-opacity: 1"/>
<stop offset="100%" style="stop-color:rgb(48,11,255);stop-opacity: 1"/>
</linearGradient>
<path style="stroke: none; stroke-width: 1; stroke-dasharray: none; stroke-linecap: butt; stroke-dashoffset: 0; stroke-linejoin: miter; stroke-miterlimit: 4; is-custom-font: none; font-file-url: none; fill: url(#SVGID_6); fill-rule: nonzero; opacity: 0.9;" transform=" translate(-720, -105)" d="M 0 0 L 10 3.5 C 20 7 40 14 60 14 C 80 14 100 7 120 17.5 C 140 28 160 56 180 77 C 200 98 220 112 240 101.5 C 260 91 280 56 300 49 C 320 42 340 63 360 59.5 C 380 56 400 28 420 21 C 440 14 460 28 480 28 C 500 28 520 14 540 38.5 C 560 63 580 126 600 154 C 620 182 640 175 660 147 C 680 119 700 70 720 56 C 740 42 760 63 780 84 C 800 105 820 126 840 129.5 C 860 133 880 119 900 101.5 C 920 84 940 63 960 52.5 C 980 42 1000 42 1020 38.5 C 1040 35 1060 28 1080 21 C 1100 14 1120 7 1140 31.5 C 1160 56 1180 112 1200 140 C 1220 168 1240 168 1260 150.5 C 1280 133 1300 98 1320 84 C 1340 70 1360 77 1380 80.5 C 1400 84 1420 84 1430 84 L 1440 84 L 1440 210 L 1430 210 C 1420 210 1400 210 1380 210 C 1360 210 1340 210 1320 210 C 1300 210 1280 210 1260 210 C 1240 210 1220 210 1200 210 C 1180 210 1160 210 1140 210 C 1120 210 1100 210 1080 210 C 1060 210 1040 210 1020 210 C 1000 210 980 210 960 210 C 940 210 920 210 900 210 C 880 210 860 210 840 210 C 820 210 800 210 780 210 C 760 210 740 210 720 210 C 700 210 680 210 660 210 C 640 210 620 210 600 210 C 580 210 560 210 540 210 C 520 210 500 210 480 210 C 460 210 440 210 420 210 C 400 210 380 210 360 210 C 340 210 320 210 300 210 C 280 210 260 210 240 210 C 220 210 200 210 180 210 C 160 210 140 210 120 210 C 100 210 80 210 60 210 C 40 210 20 210 10 210 L 0 210 Z" stroke-linecap="round"/>
</g>
</g>
</g>
</svg>