<?xml version="1.0" standalone="no"?>
<svg xmlns:xlink="http://www.w3.org/1999/xlink" id="wave" style="transform:rotate(0deg); transition: 0.3s" viewBox="0 0 1440 210" version="1.1" xmlns="http://www.w3.org/2000/svg"><defs><linearGradient id="sw-gradient-0" x1="0" x2="0" y1="1" y2="0"><stop stop-color="rgba(149.766, 19.681, 239.383, 1)" offset="0%"/><stop stop-color="rgba(11, 180.612, 255, 1)" offset="100%"/></linearGradient></defs><path style="transform:translate(0, 0px); opacity:1" fill="url(#sw-gradient-0)" d="M0,147L10,129.5C20,112,40,77,60,56C80,35,100,28,120,24.5C140,21,160,21,180,49C200,77,220,133,240,136.5C260,140,280,91,300,59.5C320,28,340,14,360,28C380,42,400,84,420,91C440,98,460,70,480,59.5C500,49,520,56,540,59.5C560,63,580,63,600,73.5C620,84,640,105,660,126C680,147,700,168,720,147C740,126,760,63,780,38.5C800,14,820,28,840,42C860,56,880,70,900,63C920,56,940,28,960,17.5C980,7,1000,14,1020,28C1040,42,1060,63,1080,77C1100,91,1120,98,1140,105C1160,112,1180,119,1200,101.5C1220,84,1240,42,1260,35C1280,28,1300,56,1320,73.5C1340,91,1360,98,1380,94.5C1400,91,1420,77,1430,70L1440,63L1440,210L1430,210C1420,210,1400,210,1380,210C1360,210,1340,210,1320,210C1300,210,1280,210,1260,210C1240,210,1220,210,1200,210C1180,210,1160,210,1140,210C1120,210,1100,210,1080,210C1060,210,1040,210,1020,210C1000,210,980,210,960,210C940,210,920,210,900,210C880,210,860,210,840,210C820,210,800,210,780,210C760,210,740,210,720,210C700,210,680,210,660,210C640,210,620,210,600,210C580,210,560,210,540,210C520,210,500,210,480,210C460,210,440,210,420,210C400,210,380,210,360,210C340,210,320,210,300,210C280,210,260,210,240,210C220,210,200,210,180,210C160,210,140,210,120,210C100,210,80,210,60,210C40,210,20,210,10,210L0,210Z"/><defs><linearGradient id="sw-gradient-1" x1="0" x2="0" y1="1" y2="0"><stop stop-color="rgba(184.74, 85.754, 1.63, 1)" offset="0%"/><stop stop-color="rgba(48.022, 11, 255, 1)" offset="100%"/></linearGradient></defs><path style="transform:translate(0, 50px); opacity:0.9" fill="url(#sw-gradient-1)" d="M0,0L10,3.5C20,7,40,14,60,14C80,14,100,7,120,17.5C140,28,160,56,180,77C200,98,220,112,240,101.5C260,91,280,56,300,49C320,42,340,63,360,59.5C380,56,400,28,420,21C440,14,460,28,480,28C500,28,520,14,540,38.5C560,63,580,126,600,154C620,182,640,175,660,147C680,119,700,70,720,56C740,42,760,63,780,84C800,105,820,126,840,129.5C860,133,880,119,900,101.5C920,84,940,63,960,52.5C980,42,1000,42,1020,38.5C1040,35,1060,28,1080,21C1100,14,1120,7,1140,31.5C1160,56,1180,112,1200,140C1220,168,1240,168,1260,150.5C1280,133,1300,98,1320,84C1340,70,1360,77,1380,80.5C1400,84,1420,84,1430,84L1440,84L1440,210L1430,210C1420,210,1400,210,1380,210C1360,210,1340,210,1320,210C1300,210,1280,210,1260,210C1240,210,1220,210,1200,210C1180,210,1160,210,1140,210C1120,210,1100,210,1080,210C1060,210,1040,210,1020,210C1000,210,980,210,960,210C940,210,920,210,900,210C880,210,860,210,840,210C820,210,800,210,780,210C760,210,740,210,720,210C700,210,680,210,660,210C640,210,620,210,600,210C580,210,560,210,540,210C520,210,500,210,480,210C460,210,440,210,420,210C400,210,380,210,360,210C340,210,320,210,300,210C280,210,260,210,240,210C220,210,200,210,180,210C160,210,140,210,120,210C100,210,80,210,60,210C40,210,20,210,10,210L0,210Z"/></svg>